<svg width="36" height="36" viewBox="0 0 36 36" fill="none" xmlns="http://www.w3.org/2000/svg">
<path d="M18.0375 33.525C16.0625 33.325 14.1438 32.7813 12.2812 31.8938C10.4187 31.0063 8.75625 29.7875 7.29375 28.2375C5.83125 26.6875 4.65625 24.7938 3.76875 22.5563C2.88125 20.3188 2.4375 17.7375 2.4375 14.8125V12.825H4.3875C5.6125 12.825 6.95625 13.0688 8.41875 13.5563C9.88125 14.0438 11.1625 14.65 12.2625 15.375C12.5125 13.1 13.1812 10.75 14.2687 8.325C15.3562 5.9 16.5875 3.8125 17.9625 2.0625C19.3375 3.8125 20.5812 5.9 21.6937 8.325C22.8062 10.75 23.4875 13.1 23.7375 15.375C24.9125 14.675 26.2125 14.075 27.6375 13.575C29.0625 13.075 30.4375 12.825 31.7625 12.825H33.5625V14.625C33.5625 17.6 33.1187 20.2188 32.2312 22.4813C31.3437 24.7437 30.175 26.6562 28.725 28.2188C27.275 29.7812 25.6187 31.0063 23.7562 31.8938C21.8937 32.7813 19.9875 33.325 18.0375 33.525ZM18.075 30.4875C17.75 25.9875 16.4187 22.5812 14.0812 20.2687C11.7437 17.9563 8.875 16.5 5.475 15.9C5.825 20.525 7.2 23.9938 9.6 26.3063C12 28.6187 14.825 30.0125 18.075 30.4875ZM18 20.6625C18.35 20.0125 18.7875 19.3813 19.3125 18.7687C19.8375 18.1562 20.375 17.6 20.925 17.1C21 15.45 20.7625 13.8625 20.2125 12.3375C19.6625 10.8125 18.9125 9.15 17.9625 7.35C17.0875 9.075 16.3688 10.7188 15.8063 12.2812C15.2438 13.8438 15 15.45 15.075 17.1C15.6 17.525 16.1313 18.075 16.6688 18.75C17.2063 19.425 17.65 20.0625 18 20.6625ZM21.0375 29.6625C22.1375 29.2625 23.2188 28.7125 24.2812 28.0125C25.3438 27.3125 26.3125 26.425 27.1875 25.35C28.0625 24.275 28.8 22.9625 29.4 21.4125C30 19.8625 30.3625 18.025 30.4875 15.9C28.0375 16.35 25.8625 17.2437 23.9625 18.5812C22.0625 19.9187 20.625 21.5875 19.65 23.5875C19.95 24.5375 20.225 25.4812 20.475 26.4187C20.725 27.3562 20.9125 28.4375 21.0375 29.6625Z" fill="#9293A4"/>
</svg>
